<svg width="512" height="512" fill="none" xmlns="http://www.w3.org/2000/svg"><g clip-path="url(#clip0)"><path d="M512 0H0v512h512V0z"/><path d="M381.634 256L273.21 101.185l-34.42-.076-17.21.076L330.003 256l-96.376 137.681h-17.21L312.793 256 204.37 101.185l-34.42-.076-17.211.076 96.469 137.605H63.988V256h214.386l-96.425-137.681h17.21L295.584 256 187.16 410.891h51.63L347.213 256 250.79 118.319H268L364.424 256 256 410.891h51.63l96.187-137.681h46.507V256h-51.479l-96.377 137.681h-17.21L381.634 256z" fill="url(#paint0_linear)"/></g><defs><linearGradient id="paint0_linear" x1="450.324" y1="256" x2="64.127" y2="256" gradientUnits="userSpaceOnUse"><stop stop-color="#F4CE1E" stop-opacity=".981"/><stop offset="1" stop-color="#CC7C19"/></linearGradient><clipPath id="clip0"><path d="M0 0h512v512H0V0z" fill="#fff"/></clipPath></defs></svg>